<svg xmlns="http://www.w3.org/2000/svg" viewBox="0 0 245 234"><path fill="#d0d1d5" stroke="#d0d1d5" d="M0 117.004v117.004l122.75-.254 122.75-.254.254-116.75L246.008 0H0v117.004m.484.496c0 64.35.119 90.528.266 58.173.146-32.355.146-85.005 0-117C.603 26.678.484 53.15.484 117.5M144.717 15.25c-9.434 16.212-12.718 41.307-9.193 70.25 2.728 22.405 3.875 35.434 3.181 36.129-.381.38-1.566-.098-2.633-1.064-2.212-2.001-8.6-4.475-11.572-4.481-1.6-.003-1.4.331 1 1.67l3 1.675-6.35.736c-3.492.404-7.414 1.433-8.715 2.285-3.577 2.345-3.796 2.152-7.322-6.472-6.425-15.716-15.63-20.836-27.015-15.028-8.161 4.164-19.307 19.486-16.789 23.081 1.602 2.287 1.138 6.353-.92 8.061-.764.634-1.389 1.602-1.389 2.151 0 2.707-5.705 9.791-8.5 10.555-6.423 1.755-16.625 36.16-15.321 51.666l.321 3.811 5.091-4.587c2.799-2.523 6.624-7.075 8.5-10.117 3.355-5.443 5.513-7.252 4.556-3.821-1.828 6.552-1.743 6.647 1.705 1.912 1.937-2.661 4.338-6.821 5.335-9.246 2.112-5.135 3.744-5.804 3.077-1.262-.431 2.936-.362 3.023.995 1.25 1.974-2.577 7.239-13.599 7.24-15.154.001-.687.491-1.25 1.089-1.25.705 0 .882 1.495.502 4.25l-.586 4.25 1.994-4.337c1.097-2.386 3.387-9.12 5.09-14.965 3.115-10.694 6.173-17.52 9.973-22.265 1.161-1.449 2.554-5.475 3.2-9.25 1.342-7.831 1.382-7.852 5.094-2.605 4.21 5.949 6.97 16.922 4.256 16.922-.764 0-2.452.904-3.75 2.008l-2.361 2.008 5.5-.537 5.5-.538-4.464 1.895c-2.456 1.043-5.943 3.606-7.75 5.696-3.384 3.915-4.075 3.962-2.226.152.876-1.804.631-1.714-1.409.517-5.269 5.76-7.029 12.909-7.093 28.799-.068 17.037 1.549 21.586 10.802 30.39 4.065 3.867 4.617 4.731 2.64 4.13-5.513-1.675-8.817-3.421-12.356-6.528-4.924-4.323-5.47-3.362-1.238 2.181 3.76 4.925 6.335 6.867 14.594 11.007l5.5 2.757-4 .008c-2.2.004-6.587-1.057-9.75-2.357-6.769-2.784-7.413-1.806-1.59 2.413 4.933 3.573 18.251 7.999 24.071 7.999 2.27 0 5.575.524 7.345 1.164 2.551.922 4.482.854 9.319-.327 5.979-1.461 6.067-1.453 4.381.411-2.127 2.35.559 1.844 10.139-1.911 8.173-3.202 9.377-2.324 2.085 1.521l-4 2.11 4.5-.56c13.809-1.717 25.76-8.348 29.103-16.149 2.408-5.617 2.38-5.992-.275-3.664-1.194 1.048-1.887 1.414-1.539.813 1.243-2.142 2.489-12.586 1.369-11.466-1.859 1.859-2.639 1.138-1.633-1.507 3.331-8.763-.647-15.044-9.358-14.775l-5.167.159 2.871-1.505c1.579-.827 4.391-1.327 6.25-1.11l3.379.394-.006-5.549c-.007-7.287-1.703-17.452-2.982-17.878-.556-.186-1.012-.991-1.012-1.79 0-4.763-7.007-11.381-12.052-11.381-5.904 0-4.608-2.876 1.384-3.07 2.099-.068 2.104-.098.168-.93-2.854-1.226-8.286-1.185-10.651.081-1.111.595-2.286.815-2.612.49-.929-.929 2.873-3.425 7.263-4.768 4.78-1.463 5.496-2.259 10.168-11.303 10.188-19.725 13.335-39.988 9.768-62.891C170.784 46.001 170 44.625 170 52.333c0 3.117-.45 5.667-1 5.667s-1.026-1.913-1.058-4.25c-.031-2.337-.4-6.05-.818-8.25l-.761-4-.769 4.25c-.879 4.855-2.594 5.714-2.594 1.299 0-8.19-3.112-16.761-10.814-29.782-4.39-7.423-4.333-7.407-7.469-2.017m2.346 19.31c-5.026 13.434-5.413 26.895-1.433 49.804 1.666 9.59 2.673 19.257 2.75 26.384.066 6.186.405 11.249.754 11.25 1.605.005 7.951-8.393 10.679-14.134 5.129-10.792 7.526-28.131 5.545-40.114-.935-5.656-2.347-4.5-2.444 2-.119 7.949-1.384 3.532-3.379-11.797-1.527-11.728-3.789-19.842-7.165-25.697-2.5-4.335-2.885-4.168-5.307 2.304m-20.377 93.39c5.377 3.279 6.166 6.03 1.566 5.459l-3.752-.466 3.204 1.688c5.116 2.695 4.898 4.178-.536 3.661-3.475-.33-4.285-.173-3.168.617.825.583 2.2 1.067 3.056 1.076.855.008 3.08 1.14 4.944 2.515 3.947 2.912 5 3.102 5 .904 0-.877.931-2.902 2.068-4.5 2.209-3.101 1.954-3.521-1.134-1.869-2.785 1.491-2.511-.59.617-4.691 2.749-3.604 1.932-4.64-1.057-1.338-.998 1.104-2.045 1.777-2.325 1.496-.281-.28.518-1.604 1.775-2.942 2.242-2.387 2.245-2.422.17-1.88-1.162.304-2.114.951-2.114 1.437 0 1.501-1.981.978-4.23-1.117-1.181-1.1-3.3-1.998-4.709-1.996-2.535.003-2.528.024.625 1.946m-1.893 23.745-.293 8.008-10.5-5.826c-5.775-3.205-10.725-5.825-11-5.823-.633.005-9 11.494-9 12.357 0 .352 1.328-.046 2.95-.885 3.401-1.759 4.412-1.921 3.58-.575-.323.523-.647 2.548-.721 4.5-.145 3.874-1.139 4.529-2.729 1.799-.907-1.558-1.023-1.499-1.05.532-.037 2.824 2.497 9.038 4.663 11.431 2.029 2.242.515 2.322-2.604.137-1.822-1.276-2.259-1.333-1.928-.25.784 2.566 10.824 6.9 15.984 6.9 6.582 0 10.887-2.331 14.742-7.98 2.422-3.548 3.759-4.664 5.152-4.299 1.699.444 1.787.164.91-2.865-.535-1.846-2.147-7.856-3.582-13.356-3.366-12.901-4.215-13.607-4.574-3.805m20.811.805c-.358 4.4-.88 10.137-1.162 12.75-.654 6.078.358 5.989 5.669-.5 7.428-9.074 7.734-9.289 8.896-6.231 4.144 10.899-2.331 18.989-9.757 12.192-1.238-1.133-2.25-1.61-2.25-1.06 0 2.29 5.052 5.601 9.272 6.076 4.713.531 13.313-2.683 9.403-3.515-1.631-.346-1.667-.565-.335-2.05.82-.914 1.788-3.462 2.15-5.662.428-2.594.331-3.531-.276-2.665-.719 1.024-1.082.792-1.562-1-1.091-4.078-.799-5.017 1.348-4.335 2.789.885 2.531-.008-1.643-5.695l-3.644-4.963-6.274 6.219-6.275 6.218-.644-4.889c-1.205-9.133-2.221-9.444-2.916-.89M110 164.465c0 9.711 8.419 15.942 14.543 10.763 5.329-4.507 5.261-4.692-3.914-10.672-10.513-6.852-10.629-6.853-10.629-.091m-34.274 19.749c-2.34 5.008-3.725 10.854-3.621 15.286.076 3.24.224 3.534.778 1.55.67-2.401.729-2.373 2.941 1.376 2.558 4.335 4.091 4.267 1.876-.083-2.632-5.172-3.182-8.358-.792-4.593 2.199 3.465 3.837 4.511 2.161 1.38-1.906-3.563-2.861-10.117-2.018-13.854 1.083-4.803.603-5.187-1.325-1.062m61.024 1.854c-3.703 1.955-4.93 3.901-2.5 3.965 3.203.086 8.75 7.08 8.75 11.035 0 3-2.754 5.931-5.579 5.935-2.306.003-20.025 4.676-22.071 5.821-.793.444 6.195.608 15.529.366 10.363-.27 20.154.023 25.144.753 4.495.657 8.367 1 8.606.761.88-.88-4.903-3.867-9.691-5.004-5.77-1.371-6.284-3.141-2.86-9.853 2.648-5.191 4.157-14.059 2.565-15.082-2.432-1.563-14.07-.715-17.893 1.303m-63.671 19.515c.048 1.165.285 1.402.604.605.289-.722.253-1.585-.079-1.917-.332-.332-.568.258-.525 1.312" fill-rule="evenodd"/><path fill="#fafafa" stroke="#fafafa" d="M0 117.004v117.004l122.75-.254 122.75-.254.254-116.75L246.008 0H0v117.004m.484.496c0 64.35.119 90.528.266 58.173.146-32.355.146-85.005 0-117C.603 26.678.484 53.15.484 117.5M143.681 16.787c-9.31 17.718-11.853 44.707-7.464 79.213 3.212 25.241 3.152 27.631-.597 24.119-2.617-2.451-6.883-4.126-10.435-4.097l-2.685.022L125 118l2.5 1.956-4.5.044c-2.475.024-6.48.942-8.899 2.04-2.419 1.097-4.47 1.875-4.557 1.728-.087-.148-1.382-3.459-2.877-7.359-8.923-23.271-25.704-24.522-40.79-3.039-4.789 6.818-5.863 9.903-3.877 11.13 1.706 1.054 1.101 5.433-1 7.232-1.1.942-2 2.408-2 3.258 0 2.972-5.03 9.066-7.967 9.653-3.439.688-7.457 9.366-11.606 25.067-2.753 10.419-4.533 30.29-2.713 30.29 1.653 0 11.307-10.179 13.981-14.743 3.069-5.237 3.711-5.349 2.897-.507l-.631 3.75 2.512-3c1.381-1.65 3.753-5.582 5.269-8.737 3.131-6.513 4.418-7.408 3.258-2.263-.434 1.925-.659 3.5-.499 3.5.793 0 6.9-10.531 8.538-14.721l1.867-4.779.091 4 .091 4 1.857-3.51c1.021-1.93 3.291-8.435 5.045-14.455 3.032-10.408 7.907-21.735 9.878-22.954 1.243-.768 4.102 3.784 4.364 6.949.154 1.858-.689 3.277-3.037 5.115-5.709 4.467-9.177 13.628-11.8 31.17-1.112 7.433-2.217 11.307-3.955 13.868-5.765 8.496-5.971 21.511-.47 29.804l1.981 2.988-.645-3.988-.646-3.987 3.63 3.185c8.324 7.301 17.203 10.66 31.172 11.792 4.38.355 10.553 1.517 13.719 2.584 7.702 2.595 14.856 2.443 26.417-.561 20.405-5.302 29.937-13.981 31.848-29l.636-5-1.704 3.5-1.705 3.5-.795-6.424c-.547-4.417-1.744-7.951-3.836-11.316-2.647-4.257-3.044-5.826-3.057-12.076-.028-13.525-4.343-25.772-11.869-33.683l-3.904-4.103 3.921-6.772c11.694-20.198 15.97-49.191 10.713-72.626l-1.346-6-.54 6c-.637 7.073-1.524 5.699-2.581-4l-.764-7-.975 4.75c-1.342 6.536-2.239 5.951-2.976-1.942-.443-4.748-1.646-8.744-4.14-13.75-4.841-9.719-9.898-18.524-10.65-18.543-.345-.008-2.231 3.039-4.193 6.772m3.963 17.463c-3.859 10.78-4.142 12.541-4.07 25.25.053 9.384.818 17.21 2.75 28.136 1.654 9.354 2.69 18.904 2.714 25l.037 9.864 3.481-4c4.38-5.035 8.947-14.221 10.931-21.991 1.481-5.801 2.31-29.046 1.079-30.276-.311-.311-.573 1.196-.581 3.35-.047 11.91-2.982 4.882-5.048-12.083-1.382-11.353-2.489-15.677-5.699-22.25-3.101-6.352-3.643-6.449-5.594-1m-53.257 84.352c-.905 3.899-.787 5.153.773 8.211 1.012 1.986 1.84 4.22 1.84 4.967 0 .969.857.746 3-.78 3.725-2.653 3.721-3.237-.078-10.84-3.687-7.378-4.154-7.509-5.535-1.558M125 153c0 7.608-.031 7.661-3.285 5.592-1.218-.775-5.925-3.444-10.46-5.931l-8.246-4.521-4.563 5.93c-5.039 6.549-4.869 7.104 1.054 3.456 4.859-2.993 5.892-3.128 4.535-.592-1.664 3.11-1.24 13.157.717 16.995 3.781 7.416 11.72 9.719 18.024 5.23 4.029-2.868 4.214-4.5.289-2.542-6.728 3.357-15.245-5.514-13.618-14.184.913-4.871 1.057-4.841 12.533 2.623 5.764 3.749 10.628 6.669 10.81 6.488.61-.611-6.239-25.544-7.018-25.544-.425 0-.772 3.15-.772 7m20.545 3.129c-.378 5.704-.928 11.212-1.221 12.239-.874 3.059 1.065 1.525 7.099-5.618 6.365-7.534 7.22-7.947 8.272-4 2.18 8.178-.178 14.764-5.549 15.499l-2.646.362 2.75.803c8.614 2.514 13.983-9.574 9.234-20.788-.764-1.806-.696-1.811 1.861-.135 3.377 2.212 3.353 1.316-.095-3.56-3.537-5.001-3.801-4.961-10.25 1.569-6.612 6.695-6.996 6.736-7.015.75-.031-9.598-1.747-7.574-2.44 2.879m-7.481 29.927-4.436 2.013 3.611 2.977c6.324 5.212 9.513 12.762 6.996 16.564-.404.61-4.785 1.36-9.735 1.667-7.94.492-20.345 3.211-19.321 4.235.206.207 5.033-.063 10.726-.598 9.818-.924 31.359.099 35.492 1.685.882.338 1.603.134 1.603-.453 0-1.175-9.039-4.146-12.614-4.146-2.258 0-2.691-.735-3.829-6.5-.482-2.44-.054-3.506 2.292-5.709 2.988-2.806 6.151-8.497 6.151-11.067 0-3.16-10.528-3.575-16.936-.668" fill-rule="evenodd"/><path fill="#cf1e4c" stroke="#cf1e4c" d="M0 117.004v117.004l122.75-.254 122.75-.254.254-116.75L246.008 0H0v117.004m.484.496c0 64.35.119 90.528.266 58.173.146-32.355.146-85.005 0-117C.603 26.678.484 53.15.484 117.5M145.568 12.676c-11.2 16.441-14.611 45.179-9.711 81.824 1.176 8.8 2.14 18.393 2.141 21.318l.002 5.318-3.128-2.227c-3.401-2.422-13.74-4.123-12.459-2.05.388.627 1.353 1.141 2.146 1.141 3.707 0 .885 1.525-3.166 1.71-2.526.116-6.139 1.123-8.029 2.238-3.203 1.89-3.477 1.909-4.038.29-10.268-29.644-27.634-32.502-44.803-7.374-4.579 6.702-4.671 6.98-3.095 9.386 1.71 2.609.778 7.75-1.403 7.75-.564 0-1.025.698-1.025 1.552 0 3.244-4.506 9.473-7.697 10.641-6.453 2.362-14.076 25.323-15.025 45.256l-.569 11.949 4.099-3.246c4.347-3.443 8.574-8.403 12.062-14.152 2.334-3.848 2.65-3.298 1.136 1.977l-.993 3.465 2.469-2.471c1.359-1.359 4.085-5.396 6.058-8.971 3.341-6.052 3.547-6.241 2.979-2.75-.335 2.062-.397 3.75-.138 3.75.649 0 6.722-10.562 8.9-15.479l1.782-4.021-.437 4.25c-.239 2.337-.229 4.25.024 4.25.971 0 5.192-10.965 8.278-21.5 3.124-10.665 7.54-20.5 9.205-20.5.997 0 3.867 5.384 3.867 7.254 0 .745-1.614 2.904-3.588 4.8-6.147 5.905-10.324 17.944-11.951 34.446-.459 4.664-1.308 7.677-2.542 9.028-5.074 5.559-6.543 20.04-2.833 27.932 2.159 4.593 5.999 8.935 4.597 5.197-2.597-6.921-2.22-7.359 2.559-2.978 8.011 7.343 15.046 9.974 30.217 11.302 4.972.435 11.066 1.587 13.541 2.561 6.242 2.454 16.575 2.276 27-.467 20.551-5.406 30.15-15.023 32.514-32.575.764-5.677.127-5.653-1.855.072l-1.358 3.921-.746-4.996c-.849-5.69-2.915-11.132-5.173-13.628-1.088-1.202-1.633-4.337-1.849-10.641-.489-14.237-4.213-24.671-11.709-32.803l-4.034-4.377 5-9.774c11.681-22.833 14.959-49.617 8.783-71.774l-1.394-5-.157 5.5c-.193 6.755-1.579 4.43-2.534-4.25-.764-6.949-2.46-7.612-2.558-1-.077 5.162-1.723 3.369-1.86-2.025-.104-4.135-3.649-13.499-7.467-19.725-1.855-3.025-4.286-7.221-5.401-9.324l-2.029-3.824-2.605 3.824m.889 26.574c-3.842 12.431-3.821 24.079.085 46.75 1.638 9.511 2.867 20.396 2.9 25.698l.058 9.197 2.669-2.557c7.35-7.042 11.834-20.465 12.307-36.838.19-6.6.134-10.312-.125-8.25-1.118 8.89-3.524 2.473-5.918-15.782-1.632-12.442-3.412-18.959-6.616-24.218-2.531-4.155-2.059-4.684-5.36 6M95.648 116c-2.241 6.867-2.267 7.381-.46 9.188.996.996 1.812 2.937 1.812 4.312 0 2.999 1.078 3.176 3.439.567 2.126-2.348 1.543-5.904-1.902-11.599-1.653-2.734-2.552-3.501-2.889-2.468m30.194 36.729c-.256 3.426-.754 6.517-1.106 6.868-.352.352-5.166-1.888-10.698-4.979-5.533-3.09-10.392-5.592-10.799-5.561-.958.074-8.525 9.99-8.014 10.501.214.214 2.027-.724 4.029-2.084 5.021-3.412 5.785-3.201 4.554 1.26-3.871 14.018 6.384 26.355 17.242 20.74 3.766-1.947 3.73-2.019-.994-2.019-7.005 0-12.171-7.699-10.64-15.859.871-4.642.483-4.743 12.652 3.285 5.738 3.785 10.532 6.798 10.653 6.695.122-.102-1.271-5.786-3.095-12.631l-3.317-12.445-.467 6.229m29.689.22c-6.887 6.982-7.496 7.206-7.631 2.801-.271-8.834-1.581-7.615-2.272 2.113-.404 5.7-.535 10.564-.289 10.809.245.245 3.059-2.731 6.253-6.613 6.736-8.188 6.974-8.283 8.355-3.309 2.148 7.733.562 13.342-4.304 15.222-2.046.79-2.056.863-.236 1.595 7.55 3.038 11.926-10.609 7.058-22.016-.766-1.794-.58-1.769 2.352.319 4.067 2.896 4.035 1.666-.082-3.171l-3.235-3.8-5.969 6.05M142.69 185.1c-7.789 1.827-8.181 2.499-3.905 6.687 2.086 2.042 4.524 4.838 5.42 6.213l1.628 2.5 3.04-3.5c3.808-4.383 6.588-9.962 5.473-10.983-1.477-1.352-7.709-1.843-11.656-.917m2.415 20.15L145 209l-5.25.035c-4.954.033-20.499 2.38-21.341 3.223-.214.214 6.468.356 14.851.316 8.382-.041 18.375.286 22.207.726 8.437.969 7.914-.066-1.149-2.275-6.43-1.568-6.709-1.765-7.887-5.575l-1.221-3.95-.105 3.75" fill-rule="evenodd"/><path fill="#0c1323" stroke="#0c1323" d="M0 117.004v117.004l122.75-.254 122.75-.254.254-116.75L246.008 0H0v117.004m.484.496c0 64.35.119 90.528.266 58.173.146-32.355.146-85.005 0-117C.603 26.678.484 53.15.484 117.5m142.052-99.25c-9.589 19.493-11.643 43.625-6.729 79.069 1.206 8.701 2.193 17.575 2.193 19.72v3.901l-3.533-2.398c-4.393-2.981-8.353-3.901-11.528-2.678l-2.439.94 2.431.937c2.197.847 1.979 1-2.267 1.581-2.584.355-6.049 1.343-7.699 2.196-2.781 1.438-3.047 1.421-3.629-.233-8.823-25.089-23.227-30.564-38.446-14.616-7.925 8.305-11.086 13.767-10.324 17.832.46 2.452.173 4.249-.954 5.968-.887 1.353-1.612 3.272-1.612 4.264 0 3.193-4.851 9.267-7.402 9.267C44.941 144 35 177.186 35 196.072c0 2.754.46 4.928 1.043 4.928 1.732 0 11.071-9.195 14.22-14l2.948-4.5-.675 4-.674 4 3-3.5c1.651-1.925 4.435-6.2 6.188-9.5 2.766-5.206 3.402-4.633 1.285 1.157-1.796 4.911 4.018-2.61 7.693-9.953 4.048-8.088 4.696-8.715 3.042-2.947-1.507 5.253.767 3.86 3.393-2.078 1.295-2.927 3.749-10.149 5.454-16.05 2.953-10.222 7.043-19.868 8.913-21.024.478-.295 1.346.46 1.929 1.679 2.355 4.923 2.279 5.813-.709 8.327-6.539 5.503-13.064 23.952-13.045 36.889.002 1.65-1.673 6.309-3.723 10.353-5.829 11.502-5.145 22.027 2.058 31.645.823 1.1 1.822 1.673 2.221 1.275.398-.399.275-1.298-.274-1.999-3.814-4.869-1.709-5.256 4.213-.774 8.174 6.187 13.816 8.08 26 8.727 7.472.396 11.011 1.062 14 2.635 9.178 4.827 31.394 1.684 44.75-6.333 10.03-6.02 16.75-17 16.75-27.367 0-4.764-1.56-4.71-2.553.088l-.776 3.75-.854-5.5c-.483-3.11-2.15-7.593-3.836-10.316-2.459-3.973-2.984-5.9-2.998-11-.038-13.323-4.532-26.538-11.818-34.748l-3.787-4.268 5.605-11.084c11.09-21.928 13.698-45.375 7.852-70.584l-1.276-5.5-.56 4.5c-.612 4.918-.941 4.246-2.578-5.261-.955-5.544-2.406-5.572-2.524-.048l-.104 4.809-.961-4c-2.302-9.578-4.346-14.589-9.667-23.703-3.116-5.337-5.983-9.724-6.371-9.75-.389-.026-2.755 4.115-5.258 9.203m17.088 85.289c-.965 2.514-.681 3.163.498 1.136.584-1.004.851-2.036.593-2.293-.257-.258-.749.263-1.091 1.157m-9.545 6.044c.048 1.165.285 1.402.604.605.289-.722.253-1.585-.079-1.917-.332-.332-.568.258-.525 1.312m-.079 5.358c0 1.068.385 2.179.856 2.47.47.291.643-.583.383-1.941-.564-2.951-1.239-3.239-1.239-.529m5.515 38.044c-7.158 7.233-7.084 7.221-8.089 1.265-.772-4.575-.831-4.402-1.59 4.691-.433 5.193-.656 9.572-.496 9.732.16.16 2.875-2.851 6.035-6.691 6.426-7.812 6.83-8.023 8.464-4.435 2.154 4.726 1.473 12.232-1.367 15.072-2.451 2.451-2.462 2.518-.35 2.204 5.701-.846 8.309-12.221 4.494-19.599-1.853-3.583-1.215-4.032 2.266-1.594 2.647 1.854 2.052.239-1.62-4.395l-1.794-2.266-5.953 6.016m-29.44 1.372c-.056 5.093-.4 6.732-1.339 6.372-.695-.267-5.758-3.029-11.25-6.138l-9.986-5.653-2.82 3.281c-5.908 6.875-5.723 7.908.628 3.508 3.669-2.542 4.107-1.891 2.808 4.169-2.891 13.478 5.389 24.094 15.569 19.961l2.815-1.143-3.381-.757c-7.036-1.577-11.631-9.797-9.724-17.397.923-3.675 2.141-3.301 12.666 3.885 5.191 3.544 9.558 6.113 9.703 5.709.145-.405-1.059-5.668-2.675-11.695l-2.938-10.959-.076 6.857m19.027 52.251-.102 3.109-10.75.543c-16.418.83-17.598 2.344-1.497 1.92 7.561-.199 16.897.075 20.747.61 3.85.534 7.143.845 7.317.691.455-.404-5.684-2.207-9.928-2.916-2.965-.495-3.796-1.181-4.648-3.834l-1.037-3.231-.102 3.108" fill-rule="evenodd"/></svg>