<svg version="1.1" id="Layer_1" xmlns="http://www.w3.org/2000/svg" xmlns:xlink="http://www.w3.org/1999/xlink" x="0px" y="0px"
	 width="100%" viewBox="0 0 500 500" enable-background="new 0 0 500 500" xml:space="preserve">
<path fill="#141414" opacity="1.000000" stroke="none" 
	d="
M293.000000,501.000000 
	C196.666687,501.000000 100.833351,500.976562 5.000187,501.095642 
	C1.576184,501.099915 0.903036,500.423828 0.905301,497.000000 
	C1.013778,333.000092 1.013756,169.000137 0.905338,5.000250 
	C0.903074,1.576958 1.575783,0.903021 4.999873,0.905286 
	C168.999756,1.013775 332.999725,1.013761 496.999634,0.905354 
	C500.422668,0.903091 501.096985,1.575423 501.094727,4.999753 
	C500.986206,168.999634 500.986237,332.999603 501.094604,496.999512 
	C501.096893,500.422272 500.425751,501.103119 497.000244,501.096588 
	C429.167023,500.966980 361.333466,501.000000 293.000000,501.000000 
z"/>
<path fill="#FDFDFD" opacity="1.000000" stroke="none" 
	d="
M122.325806,334.802185 
	C121.310425,334.690948 120.586487,334.648773 119.532074,334.454468 
	C117.084572,333.741516 114.744911,333.639557 113.298996,331.124268 
	C113.160057,330.255249 113.229141,329.764526 113.612045,328.980286 
	C115.044136,327.619934 116.462074,327.755341 118.207870,328.063690 
	C118.810066,328.214783 119.004120,328.394409 119.072739,328.658997 
	C119.152588,328.966888 119.175903,328.886261 118.917671,328.256165 
	C114.489754,327.134399 110.703156,325.550507 108.412369,321.207092 
	C108.479424,320.083221 108.838799,319.461792 109.705154,318.758789 
	C109.841690,317.602173 113.861099,320.024933 111.246284,316.984283 
	C101.973785,306.201874 101.779182,293.919403 105.624023,280.737732 
	C106.133133,279.710388 106.470604,278.969330 106.304451,277.796295 
	C106.198830,275.535126 107.245842,274.133545 108.787003,272.642700 
	C109.226234,272.322479 109.409737,272.208344 109.877670,271.949585 
	C110.983116,271.539856 111.597893,271.029022 112.167740,269.989075 
	C114.430328,267.080078 116.775986,264.780884 120.402458,263.756897 
	C121.646233,262.682709 120.215202,262.050354 120.262115,260.846680 
	C120.290085,259.480530 120.628120,258.551147 121.362656,257.357422 
	C122.279243,256.505646 123.020538,256.299866 124.251190,256.656738 
	C128.796722,254.447540 133.213852,252.993668 138.083557,252.375092 
	C138.167389,251.540787 138.290497,251.165741 138.805908,250.672272 
	C140.210464,250.852951 141.359100,251.199265 142.737671,251.824646 
	C144.847900,254.061417 144.777573,256.364044 143.971710,259.154724 
	C143.336792,260.277863 142.654205,260.646515 141.455261,260.721619 
	C140.671570,260.624359 140.436462,260.198700 140.187485,260.220490 
	C140.888397,260.856842 141.315567,261.439301 141.447342,262.524597 
	C141.315292,263.279419 141.106964,263.662445 140.566727,264.212158 
	C139.598434,264.755524 138.888138,264.863312 138.176056,264.407837 
	C138.101440,264.360138 138.037216,264.380127 138.039658,264.379730 
	C138.697708,264.272919 138.312607,265.403687 138.461029,265.012756 
	C138.713745,265.704315 138.733765,266.125397 138.572327,266.859985 
	C138.230286,267.476929 137.980789,267.765167 137.489105,268.046356 
	C137.335587,268.130859 137.271118,268.328552 137.462769,268.258942 
	C141.075333,267.970947 143.382904,270.126740 146.123093,272.153809 
	C150.775055,271.910248 154.267014,273.036499 155.811554,277.956238 
	C154.700455,282.511780 154.218689,286.758514 154.957047,291.399902 
	C156.160110,293.230713 156.960968,294.954926 159.002380,296.083984 
	C162.391129,297.623444 165.664276,297.962433 168.944183,298.235291 
	C178.514420,299.031464 181.472687,303.981750 177.666931,313.423523 
	C175.828094,319.678345 171.171021,323.077179 166.336502,326.807739 
	C165.453522,327.167023 164.921860,327.288574 163.960968,327.384369 
	C161.860947,327.485199 160.175995,327.541992 158.211914,326.665619 
	C155.688553,323.559631 156.492523,320.552917 157.545639,317.572418 
	C158.139496,315.891663 159.408295,314.469971 159.501678,312.212219 
	C159.531357,310.474274 159.621857,309.106842 159.361893,307.465149 
	C159.203415,307.014435 159.141800,306.841522 158.958252,306.447968 
	C158.425339,305.821045 157.941360,305.851257 157.142746,306.079773 
	C155.266495,306.512665 153.687241,306.489105 151.768585,306.061310 
	C149.195816,305.508850 146.876862,303.314667 144.836792,306.605225 
	C144.905731,307.100952 144.954468,307.292328 145.086304,307.759155 
	C145.237457,308.208771 145.305511,308.383026 145.499023,308.805267 
	C145.726685,309.208160 145.828918,309.363007 146.108994,309.732300 
	C146.816010,310.587860 147.613998,310.717285 148.628204,311.144287 
	C150.010239,311.824402 150.873901,312.615997 151.741913,313.943726 
	C152.122192,314.762299 152.261932,315.261871 152.376541,316.175079 
	C151.969666,322.543671 151.059082,323.549927 145.101303,324.486206 
	C144.106018,324.642609 143.187943,325.016785 141.850525,325.317047 
	C140.509384,325.467743 139.576950,325.656586 138.495651,326.464600 
	C137.979919,326.713470 137.765015,326.790253 137.214737,326.910675 
	C136.400909,326.982819 135.921371,326.983185 135.442871,327.010071 
	C136.087006,326.995728 136.731461,326.997772 137.743652,326.936707 
	C144.019073,324.582489 149.974228,325.543060 156.347961,326.732483 
	C157.029160,326.935638 157.293747,327.046417 157.900803,327.422668 
	C159.383606,329.359589 158.940887,330.985718 157.864471,332.947388 
	C155.165573,335.514221 152.173309,336.498108 148.989197,336.136322 
	C144.844604,335.665405 140.979767,338.296906 136.430206,336.938080 
	C132.730362,335.659088 129.254150,335.468262 125.397827,335.112457 
	C124.208046,334.995422 123.407982,335.008575 122.325806,334.802185 
z"/>
<path fill="#F8F8F9" opacity="1.000000" stroke="none" 
	d="
M124.521072,256.426697 
	C123.895050,257.051941 123.150185,257.328674 122.142715,257.907837 
	C119.225502,258.318024 118.858742,256.109558 118.194077,254.380829 
	C117.431885,252.398438 116.563820,250.520813 115.128845,248.942017 
	C115.056526,248.862473 114.798141,248.867340 114.684258,248.933105 
	C114.560265,249.004684 114.503822,249.193298 114.353043,249.649170 
	C113.591408,252.516006 113.446663,255.257278 111.442429,257.713623 
	C107.885262,257.754944 107.350540,260.666412 106.363235,262.664154 
	C104.847343,265.731384 103.855316,269.057556 102.426407,272.609924 
	C102.038017,273.513275 101.718857,274.038971 101.749466,274.954834 
	C100.813248,280.121277 98.921135,284.658691 96.924889,289.407349 
	C95.341270,288.515991 97.046799,286.786896 95.472740,285.941315 
	C93.772446,289.092163 92.984261,292.829132 90.023270,295.620972 
	C88.971725,296.597046 88.352707,295.494232 87.196793,295.551880 
	C86.012482,298.717896 84.097496,301.261261 82.474838,303.955444 
	C81.889420,304.927460 81.132469,306.555145 79.973396,305.848236 
	C77.360603,304.254669 76.987503,306.486084 76.027107,307.732086 
	C73.306511,311.261688 70.497383,314.679413 65.974373,317.047577 
	C65.198540,310.166443 66.022820,303.780182 67.454903,297.517273 
	C68.781769,291.714478 70.516968,286.004700 72.843895,280.477936 
	C74.264160,277.104584 75.240623,273.983643 79.501305,272.662659 
	C82.881584,271.614685 87.141373,260.422363 86.222763,256.709808 
	C85.825264,255.103348 85.948479,253.808670 86.783852,252.468430 
	C90.585556,246.369034 94.704247,240.575516 101.691360,237.164536 
	C102.559441,237.057907 103.080299,236.963638 103.842415,236.735519 
	C104.525146,236.506729 104.952881,236.349152 105.725159,236.237228 
	C106.480995,236.180954 106.898033,236.136032 107.630661,236.224808 
	C112.463821,236.141998 115.521553,238.568115 118.090439,242.337814 
	C118.414734,243.394058 118.984413,243.922226 119.486870,244.821442 
	C120.434837,246.733612 121.249229,248.397430 122.099380,250.406067 
	C122.230934,250.959076 122.326729,251.167267 122.542679,251.697510 
	C123.242622,253.372452 123.822418,254.725296 124.521072,256.426697 
z"/>
<path fill="#F1EBED" opacity="1.000000" stroke="none" 
	d="
M147.700806,238.314789 
	C143.987137,219.912598 142.226639,201.605850 147.126068,183.299377 
	C148.851959,176.850708 151.327499,170.720276 155.435638,165.035858 
	C161.580856,174.446274 167.752014,183.462677 167.989838,195.142624 
	C170.618668,194.189178 169.420868,191.957565 170.695557,190.404083 
	C171.228897,193.595245 171.714722,196.502197 172.204697,199.433990 
	C174.035583,199.457428 172.428909,197.183426 174.551270,197.046982 
	C177.890411,211.890549 177.277084,226.728577 172.115082,241.689987 
	C171.285110,242.029556 170.844696,241.816513 170.414627,240.940491 
	C170.305603,235.852615 172.444244,231.510101 172.741821,226.458344 
	C173.701294,222.457458 173.269089,218.732193 173.609024,216.056183 
	C173.566635,216.911835 172.414444,217.560822 170.410706,217.582886 
	C168.876724,216.701843 168.373596,215.663940 168.678696,214.312088 
	C167.805740,215.278336 169.804840,217.928299 167.323044,217.906464 
	C165.441757,217.889908 164.982559,215.769516 164.543076,214.194244 
	C163.243744,209.537094 163.083069,204.698669 162.428116,199.939270 
	C161.704712,194.682388 160.583054,189.572342 157.498276,184.354385 
	C155.411621,188.033310 154.769211,191.541992 154.154266,195.475800 
	C152.440247,204.709625 153.930191,213.396805 155.306107,222.102005 
	C155.874008,225.695084 156.973877,229.261124 156.120087,233.405640 
	C154.118103,236.636566 152.428375,239.750473 147.700806,238.314789 
z"/>
<path fill="#F7F7F7" opacity="1.000000" stroke="none" 
	d="
M205.841599,311.992859 
	C204.758377,314.555115 207.228256,318.150787 203.279800,318.974915 
	C197.911133,320.095520 197.053558,319.122162 197.598877,313.647308 
	C198.456619,305.035614 199.143341,296.406921 199.996063,287.794708 
	C200.136230,286.379120 199.195480,283.823425 201.919113,284.128082 
	C204.555496,284.422943 208.095459,282.087830 209.700867,286.220093 
	C211.860352,291.778595 213.974640,297.354645 216.487732,303.913330 
	C218.895401,297.713470 221.238708,292.491486 222.933868,287.066956 
	C224.389069,282.410309 227.894440,284.311707 230.678574,284.075226 
	C234.170135,283.778687 232.885849,286.731842 233.060776,288.360260 
	C234.020523,297.294891 234.841400,306.245239 235.614471,315.198395 
	C235.746994,316.733124 237.026367,319.346008 233.673309,318.945892 
	C231.388641,318.673309 227.905579,320.921783 227.508286,315.856659 
	C227.121353,310.923798 227.450607,305.873932 225.705307,299.816620 
	C223.584824,305.734467 221.819473,310.628204 220.080841,315.531433 
	C219.482437,317.219055 219.286972,318.926880 216.677795,318.999847 
	C213.823517,319.079712 213.547943,317.235809 212.894760,315.354462 
	C211.224854,310.544556 209.488556,305.757660 206.700714,301.021057 
	C206.424240,304.526031 206.147751,308.031006 205.841599,311.992859 
z"/>
<path fill="#F7F7F7" opacity="1.000000" stroke="none" 
	d="
M270.177124,314.154480 
	C263.111755,320.347107 255.278748,321.427277 248.365723,317.398468 
	C241.614487,313.463959 238.315018,305.327911 240.119583,297.064575 
	C241.667648,289.975861 248.028931,284.217468 255.585144,283.490173 
	C262.893433,282.786774 268.546173,285.837463 272.392792,292.032440 
	C276.515930,298.672821 275.720490,306.688110 270.177124,314.154480 
z"/>
<path fill="#F2F2F2" opacity="1.000000" stroke="none" 
	d="
M247.241470,240.331329 
	C243.884781,246.622910 237.980835,247.820236 232.141373,249.222488 
	C228.713913,250.045517 225.263351,250.013031 221.820084,251.987198 
	C219.836258,253.124573 215.428787,251.927414 211.793930,251.854294 
	C213.381348,247.234863 213.707245,242.497116 220.557449,242.908859 
	C223.981384,243.114670 224.956650,239.178268 224.498749,236.213226 
	C224.095001,233.598892 223.006104,231.829514 226.810760,230.687454 
	C229.989105,229.733398 230.098557,224.516373 227.408920,222.378662 
	C226.129837,221.362030 226.256241,220.104416 226.596375,218.773697 
	C227.118530,216.730896 227.952042,215.193497 230.465561,214.926025 
	C235.584045,214.381287 240.657440,213.584137 245.848206,214.080826 
	C250.921036,214.566238 252.704926,217.625137 250.503265,222.296753 
	C248.630661,226.270203 244.653015,227.465591 240.808212,229.669952 
	C245.435501,231.778320 250.177994,233.716446 247.241470,240.331329 
z"/>
<path fill="#F0F0F0" opacity="1.000000" stroke="none" 
	d="
M357.160706,240.760895 
	C354.638763,244.867233 352.403259,248.680893 347.756927,250.328125 
	C345.028839,251.295288 344.674347,254.495102 343.267609,256.686920 
	C340.550049,260.921143 337.498779,264.421814 331.818024,264.047699 
	C330.079041,263.933167 328.573761,263.339935 327.198578,262.416107 
	C325.808350,261.482208 324.261414,260.264191 324.339844,258.556030 
	C324.441803,256.336212 326.780548,256.527557 328.238647,256.293091 
	C335.098450,255.190002 340.420380,252.270493 342.661255,244.818039 
	C342.579132,244.156509 342.368073,243.866028 341.852966,243.586487 
	C336.810669,245.466644 335.873322,240.937790 333.507965,238.673660 
	C332.350769,239.932999 331.240082,241.166214 330.102692,242.374283 
	C327.906494,244.706955 325.180969,245.021896 322.302582,244.158234 
	C319.175812,243.220032 318.733887,240.554718 318.545624,237.789764 
	C318.427063,236.048080 319.608154,234.024979 316.934265,232.783173 
	C316.485046,232.574554 318.590240,229.812347 320.343140,229.410660 
	C322.263702,228.970505 324.209503,229.504013 324.090942,232.053406 
	C323.983765,234.358444 323.401611,236.637589 323.162720,238.942017 
	C323.050385,240.026108 322.592804,241.385056 323.932617,242.066422 
	C325.099762,242.659973 326.204559,242.093109 327.150299,241.374619 
	C330.452850,238.865601 333.889832,236.540131 334.272644,231.741989 
	C334.426758,229.810440 335.142700,227.786346 336.113525,226.098007 
	C336.992584,224.569214 336.705719,220.870407 339.949554,222.439789 
	C342.640045,223.741440 344.951202,226.073227 342.995178,229.694748 
	C341.229706,232.963455 339.385620,236.189682 336.936890,240.581116 
	C341.312531,238.838730 343.808350,236.714417 346.052887,234.413361 
	C348.321503,232.087585 350.222595,229.403290 353.100159,225.876602 
	C353.475616,233.585327 348.416962,238.704391 348.164459,245.392670 
	C351.364044,244.549240 353.158020,242.105576 355.671448,240.139236 
	C356.512207,239.782318 356.937958,239.918823 357.160706,240.760895 
z"/>
<path fill="#F6F6F6" opacity="1.000000" stroke="none" 
	d="
M372.347778,319.450439 
	C367.138702,320.214752 362.753357,318.981354 358.509674,316.768097 
	C355.818451,315.364441 356.562378,313.773132 357.933777,312.044891 
	C359.065643,310.618530 359.214996,307.395721 362.464996,309.800873 
	C364.454620,311.273315 366.777588,312.282013 369.436615,312.117065 
	C371.213867,312.006836 372.837738,311.643951 373.464813,309.793762 
	C374.146973,307.780853 372.721771,306.698853 371.237122,305.867645 
	C369.209381,304.732361 367.048523,303.831055 365.042145,302.662231 
	C361.182098,300.413544 358.521301,297.288055 359.342499,292.512268 
	C360.157928,287.770020 363.266083,285.015503 367.869659,283.778809 
	C371.095001,282.912415 374.214050,283.486176 377.161926,284.606476 
	C378.801117,285.229462 382.177765,285.031067 380.642670,288.568451 
	C379.554047,291.077026 378.691925,294.149567 374.770050,291.576233 
	C373.764801,290.916656 372.210693,291.012604 370.897736,290.923492 
	C369.278290,290.813660 367.845123,291.392242 367.337341,293.037415 
	C366.768860,294.879303 368.222260,295.759552 369.525604,296.471436 
	C371.272186,297.425323 373.145355,298.144714 374.913788,299.061920 
	C379.225525,301.298157 382.953217,304.024872 382.504852,309.647980 
	C382.082886,314.939911 379.263092,317.687744 372.347778,319.450439 
z"/>
<path fill="#F7F7F7" opacity="1.000000" stroke="none" 
	d="
M301.051941,289.926453 
	C302.109344,282.818207 306.949677,283.713226 311.944550,284.256622 
	C311.060730,288.495483 308.933533,292.200256 307.351837,296.090790 
	C304.601807,302.855164 301.689240,309.553772 298.973358,316.331482 
	C298.194641,318.274780 297.219025,319.369751 294.980591,319.039825 
	C293.296570,318.791595 291.529236,319.544525 290.529083,317.071167 
	C286.123108,306.175262 281.488007,295.372009 276.896149,284.440582 
	C285.552704,283.412109 285.547668,283.414062 288.338165,290.616638 
	C290.313934,295.716217 292.305603,300.809692 294.576355,306.640869 
	C296.868652,300.760498 298.907013,295.531586 301.051941,289.926453 
z"/>
<path fill="#FDFDFD" opacity="1.000000" stroke="none" 
	d="
M350.224884,304.501709 
	C347.592621,304.886841 345.255890,305.117157 342.946014,304.958069 
	C340.200928,304.769043 338.880371,305.157837 338.846832,308.567169 
	C338.810974,312.209167 340.582336,312.170929 343.082581,312.012238 
	C344.408447,311.928101 345.756836,312.115204 347.072632,311.972839 
	C349.813416,311.676239 351.143555,312.153473 351.176117,315.563385 
	C351.210693,319.188171 349.469116,319.113708 346.949921,319.028656 
	C341.822113,318.855469 335.077515,320.753113 332.004211,318.191742 
	C328.813171,315.532227 331.192963,308.539520 331.046600,303.446655 
	C330.893677,298.126160 331.108063,292.795349 330.969330,287.474091 
	C330.907166,285.088165 331.260925,283.815033 334.136963,283.964447 
	C338.783691,284.205780 343.468323,284.266144 348.105957,283.949402 
	C351.411011,283.723724 350.915863,285.637207 351.061188,287.657104 
	C351.235535,290.080231 350.742401,291.467621 347.895599,291.097656 
	C346.259216,290.885040 344.555511,291.210724 342.912292,291.025909 
	C340.053406,290.704407 338.815369,291.373901 338.867920,294.702332 
	C338.917542,297.842621 340.188751,298.324524 342.713409,298.007629 
	C343.368683,297.925385 344.065796,298.107422 344.705109,297.977753 
	C350.013794,296.900879 351.501831,299.371582 350.224884,304.501709 
z"/>
<path fill="#B7BCC1" opacity="1.000000" stroke="none" 
	d="
M122.015633,264.609619 
	C117.987236,265.115295 115.742409,267.927338 113.150085,270.721375 
	C112.554207,271.474854 112.044563,271.830444 111.137817,272.130829 
	C110.668159,272.354462 110.489922,272.463165 110.044403,272.734985 
	C108.904457,274.379456 108.031784,275.860748 107.140335,277.669128 
	C107.438530,278.434082 107.533936,278.915894 107.138901,279.715088 
	C103.710876,292.815765 102.800247,305.270386 112.345032,316.222992 
	C113.618782,317.684601 115.653343,318.469299 116.328629,320.635345 
	C114.119316,321.204773 112.501846,319.747040 110.331329,319.118286 
	C109.341011,319.016968 108.685287,319.011353 107.801804,318.564209 
	C107.236992,318.126343 106.888832,317.909515 106.738525,317.511566 
	C106.646492,317.628784 106.737999,317.801849 107.215477,318.235260 
	C108.070076,319.009064 108.548668,319.679749 108.768890,320.874390 
	C111.825844,324.333130 115.668434,325.985229 119.819077,327.792877 
	C120.165794,328.204529 120.247154,328.389252 120.094620,328.766296 
	C118.203140,328.879364 116.545547,328.800140 114.475861,328.677490 
	C113.033951,329.079559 111.991852,328.935791 111.763588,328.831482 
	C112.141563,328.895508 112.836456,329.764587 113.733566,330.892456 
	C115.615211,332.013977 117.303413,332.864868 119.096611,334.009033 
	C112.003189,334.313416 106.354164,330.830109 101.266861,326.212769 
	C98.397789,323.608704 98.598953,325.722290 98.776337,328.279144 
	C95.366112,325.127167 94.593277,321.451538 94.623184,317.236389 
	C96.670341,315.684753 97.146606,318.544373 98.897034,318.077515 
	C99.446289,317.722015 99.736031,317.761383 100.079407,318.136230 
	C100.176064,318.235687 100.171837,318.226227 100.046112,318.068542 
	C99.639679,317.704224 99.368973,317.485016 98.902847,316.983032 
	C96.856056,312.807037 97.344414,308.760620 97.920135,304.322845 
	C100.373985,301.169617 100.565071,297.684937 101.023773,294.248627 
	C101.901947,287.669739 102.837280,281.091125 105.437248,274.902924 
	C106.541061,272.275757 107.829796,269.629700 110.214424,268.033386 
	C114.309959,265.291809 113.799797,262.196625 111.294884,258.347595 
	C114.267731,256.603363 114.658371,259.469391 115.988312,261.435791 
	C116.208191,261.971436 116.293755,262.182861 116.428795,262.716064 
	C116.460953,263.382050 116.258575,263.623016 116.026802,263.847626 
	C116.339020,263.735718 116.611465,263.556152 117.150009,263.143677 
	C119.241409,262.546112 120.916580,262.520081 122.015633,264.609619 
z"/>
<path fill="#F4F4F4" opacity="1.000000" stroke="none" 
	d="
M286.253540,235.806702 
	C284.066742,239.345291 280.999847,241.863998 280.086456,245.734360 
	C279.599518,247.797592 278.024139,248.086472 276.242432,248.032593 
	C274.302002,247.973892 272.478912,247.793549 272.538086,244.812012 
	C272.142059,244.353226 272.655884,243.284760 271.623352,243.515762 
	C269.469788,244.466125 267.370483,245.442795 264.917511,245.051407 
	C264.273743,244.948685 263.128693,244.787308 263.094604,244.534286 
	C262.332581,238.875458 258.572144,241.098846 255.286697,241.230179 
	C251.959686,241.363174 251.104767,238.774368 251.757614,236.026566 
	C252.726974,231.946579 255.213501,228.535156 257.548340,225.144958 
	C258.093018,224.354126 259.458374,222.942871 260.949158,224.150436 
	C262.144562,225.118729 261.279236,226.300201 260.980560,227.363434 
	C260.309357,229.752502 259.561493,232.119995 258.886566,234.508041 
	C258.618774,235.455521 258.180664,236.742020 259.184326,237.217377 
	C259.899841,237.556244 261.115784,237.122879 262.001526,236.767639 
	C265.370728,235.416275 265.978149,231.601501 268.593048,229.178574 
	C270.613953,231.969116 268.024384,234.089218 267.721924,236.416687 
	C267.503662,238.096436 265.719879,240.118256 267.802368,241.283035 
	C269.728027,242.360123 271.658752,240.912933 273.021057,239.383743 
	C276.274414,235.731903 277.110413,230.698700 280.008514,226.860092 
	C280.837250,225.762436 280.328400,222.970749 282.866058,223.803513 
	C285.079987,224.530029 285.653442,226.506851 285.120422,228.708649 
	C284.654816,230.631851 284.005310,232.513306 283.599915,234.447342 
	C283.314117,235.810760 284.226074,235.613083 285.507141,235.071686 
	C286.112854,235.050507 286.280457,235.255478 286.253540,235.806702 
z"/>
<path fill="#F2F2F2" opacity="1.000000" stroke="none" 
	d="
M287.900635,233.135635 
	C288.650787,231.361404 289.690887,229.911911 291.293396,229.472672 
	C293.483826,228.872238 295.395050,229.518021 295.413727,232.249313 
	C295.424927,233.888382 294.921967,235.524353 294.779449,237.172897 
	C294.634125,238.854202 293.209625,241.004257 295.469574,242.039520 
	C297.391510,242.919983 298.771362,241.054565 300.227722,240.026169 
	C305.151581,236.549255 305.950989,230.466980 309.186035,225.933090 
	C309.786560,225.091507 309.441437,222.834076 311.610077,223.762939 
	C313.059845,224.383911 314.264832,225.471420 314.016510,227.164963 
	C313.028809,233.901581 312.361969,240.767502 308.440247,246.647461 
	C306.934723,248.904724 302.538147,248.655701 301.373260,246.097565 
	C300.763184,244.757904 300.709198,243.951004 298.873322,244.030746 
	C290.592804,244.390457 289.995087,243.716187 289.931396,235.255157 
	C289.925873,234.522568 290.365417,233.565689 288.853027,233.429840 
	C288.327759,233.558289 288.141724,233.492401 287.900635,233.135635 
z"/>
<path fill="#F8F8F8" opacity="1.000000" stroke="none" 
	d="
M136.314102,337.129059 
	C140.560959,336.170258 144.717789,333.719727 149.681244,334.747131 
	C151.663574,335.157440 154.033936,333.693237 156.603241,333.021576 
	C158.402359,331.634277 159.796310,330.276550 161.467072,328.733093 
	C162.092529,328.293732 162.480408,328.096405 163.190048,327.829987 
	C164.296082,327.530151 165.138504,327.413422 165.807114,326.366028 
	C169.375137,322.289337 173.543350,319.142181 176.088699,314.174835 
	C178.892242,311.663605 180.106171,313.217194 180.158768,315.837738 
	C180.216873,318.732666 180.477798,321.701813 179.350494,324.923615 
	C178.311401,327.371033 176.848648,329.033630 175.011795,330.144897 
	C163.124573,337.336304 150.576630,341.224396 136.314102,337.129059 
z"/>
<path fill="#F8F8F8" opacity="1.000000" stroke="none" 
	d="
M154.999664,278.148468 
	C152.855621,274.851868 150.562927,272.284760 146.209961,274.220764 
	C144.460098,270.894257 148.430557,267.811554 146.124512,264.381317 
	C146.395691,263.715485 146.631561,263.386688 147.116913,262.901062 
	C147.126236,262.239899 148.230499,262.630768 147.671066,262.232635 
	C147.278931,262.720612 147.007950,262.976105 146.466660,263.362915 
	C145.169113,263.396484 144.689255,262.841614 144.855362,261.482605 
	C145.029907,260.947113 145.122559,260.739166 145.397858,260.239563 
	C145.727005,259.769745 145.873474,259.591583 146.277313,259.180237 
	C147.834961,258.020081 149.159698,258.260834 150.796021,259.035339 
	C152.246124,260.029327 152.882431,261.257324 153.793976,262.634216 
	C154.045547,263.026855 154.136978,263.179077 154.346634,263.536438 
	C154.675125,264.047333 154.951553,264.120758 155.572510,263.880066 
	C157.821274,263.507111 159.812790,263.324615 161.757828,263.805786 
	C162.949997,264.100708 164.507919,264.330811 163.760971,266.320404 
	C163.681915,266.530975 162.583344,266.880402 163.562607,266.991943 
	C168.199493,267.520264 170.170746,270.885437 172.032501,274.851501 
	C172.697037,276.552856 173.290314,277.915131 173.890930,279.650665 
	C172.982147,281.946655 171.562836,281.393677 169.832001,280.586121 
	C167.371384,277.144867 165.054886,276.843170 162.531723,279.992432 
	C162.224442,280.375977 161.860153,280.725647 161.476562,281.034363 
	C159.870758,282.326782 158.546555,284.873016 156.199753,283.889679 
	C153.962509,282.952240 155.318771,280.348145 154.999664,278.148468 
z"/>
<path fill="#F8F8F9" opacity="1.000000" stroke="none" 
	d="
M315.802551,290.078918 
	C315.372620,285.858643 315.705719,283.230774 320.810913,283.870972 
	C323.628998,284.224396 323.940338,285.235992 323.918335,287.549988 
	C323.829956,296.858459 323.702271,306.173492 323.973877,315.474854 
	C324.076508,318.988586 322.481171,319.086548 319.826508,319.081787 
	C317.196503,319.077057 315.582397,319.023071 315.707947,315.499756 
	C316.003723,307.198425 315.802643,298.879395 315.802551,290.078918 
z"/>
<path fill="#D2D4D6" opacity="1.000000" stroke="none" 
	d="
M169.975311,279.989197 
	C171.389313,279.765686 172.298325,281.092133 173.651123,280.128174 
	C175.899475,284.501892 176.105377,289.268433 175.956833,294.041351 
	C175.871628,296.778992 176.226227,299.115784 178.161148,301.310211 
	C181.274948,304.841644 180.967804,309.591919 181.840561,313.937073 
	C183.563171,313.925476 183.857513,312.726471 184.344543,311.984039 
	C184.361893,316.621429 182.603119,320.973663 179.453339,325.125610 
	C178.667145,322.316437 177.603546,319.417114 178.818176,316.294281 
	C179.358414,314.905304 179.152756,313.225830 176.445435,313.817139 
	C176.643677,312.403381 177.219177,311.022980 177.662704,309.601379 
	C178.944473,305.493164 177.047562,299.286957 170.560486,299.837097 
	C166.423401,300.187897 162.339966,299.191254 158.202057,297.286804 
	C158.073318,294.553406 160.052765,294.967224 161.998718,294.725067 
	C165.648911,296.035522 167.044159,294.394470 167.422012,291.428772 
	C167.674164,289.449554 167.467239,287.453705 167.250854,285.464630 
	C167.008698,283.238770 167.069321,281.075256 169.975311,279.989197 
z"/>
<path fill="#FDFDFD" opacity="1.000000" stroke="none" 
	d="
M154.617294,264.285583 
	C152.024078,264.037323 152.061234,262.001678 151.148285,260.324707 
	C149.960785,258.839966 148.577362,257.954224 148.010239,256.023346 
	C147.833008,255.012436 147.990479,254.355606 148.215302,253.373886 
	C148.260834,252.574738 148.219955,252.098587 148.254822,251.270615 
	C147.791031,249.191040 148.089630,247.407959 147.970840,245.320587 
	C147.680634,243.010971 147.402405,241.032425 147.191010,238.631073 
	C150.622650,238.544388 152.349380,235.867004 154.963989,234.044708 
	C158.285110,235.244492 157.341751,237.911621 157.371857,240.612030 
	C156.902985,242.961563 155.763580,244.913483 157.294052,247.244049 
	C157.631638,247.959045 157.749619,248.392471 157.817978,249.175354 
	C157.792664,249.944168 157.733185,250.376175 157.585571,251.115524 
	C157.401443,252.030807 157.236877,252.625702 157.079224,253.522339 
	C156.986221,254.390671 156.965118,254.964111 157.408539,255.760223 
	C158.880707,257.307159 160.205032,258.585236 159.931290,261.023132 
	C159.056046,263.722778 157.030502,264.105499 154.617294,264.285583 
z"/>
<path fill="#F8F8F9" opacity="1.000000" stroke="none" 
	d="
M159.534302,261.638977 
	C159.611710,258.951874 157.237762,258.237183 156.085648,256.335144 
	C156.030685,255.312759 156.219727,254.697479 156.675140,253.822144 
	C157.450729,252.017410 158.667099,251.070343 160.286514,250.058502 
	C162.255554,249.305328 163.079544,248.121613 163.077209,246.018341 
	C163.121277,244.791626 163.399902,243.973892 164.036072,242.953888 
	C164.819550,241.910095 165.623596,241.231659 165.631165,239.799500 
	C165.778244,238.422668 166.088516,237.408722 166.635452,236.129364 
	C166.942459,235.444138 167.129089,235.057693 167.402191,234.360123 
	C167.584534,233.162125 167.601273,232.274643 167.597244,231.033875 
	C167.657059,229.954559 167.823807,229.251648 168.220306,228.222046 
	C168.932663,227.006805 169.708557,226.347397 170.839417,225.517639 
	C171.961212,225.108246 172.720901,225.149460 173.744659,225.749451 
	C174.313660,231.009216 172.543304,235.608292 171.147064,240.656403 
	C169.867569,242.186172 169.698715,243.607635 169.939087,245.473541 
	C169.482788,247.920944 168.674133,249.876190 167.294342,251.979095 
	C167.121521,252.293930 167.156021,252.710938 167.002289,252.852859 
	C165.379990,254.883621 164.391357,257.027222 163.497131,259.610535 
	C163.012756,262.043976 161.542480,262.126160 159.534302,261.638977 
z"/>
<path fill="#B7BCC1" opacity="1.000000" stroke="none" 
	d="
M158.960739,261.655884 
	C160.467361,261.004486 162.196106,261.484039 162.898560,259.331970 
	C163.144226,258.855560 163.293457,258.723053 163.677567,258.776184 
	C162.880676,261.214844 164.218475,262.629883 165.593842,264.163269 
	C168.370972,267.259521 171.088394,270.425751 172.210648,274.864563 
	C168.833359,272.182404 166.923996,267.154236 161.180771,268.051361 
	C160.798157,266.297180 162.915100,266.694550 162.983200,264.999268 
	C160.289352,264.999268 157.581146,264.999268 154.448471,265.005981 
	C154.024002,265.012695 154.138290,264.572174 154.200256,264.353668 
	C155.751465,263.378082 157.240692,262.621002 158.960739,261.655884 
z"/>
<path fill="#E02959" opacity="1.000000" stroke="none" 
	d="
M116.425262,263.114594 
	C113.133362,262.544800 114.942650,258.326202 111.514725,257.942139 
	C111.088409,257.977020 111.150017,257.968475 111.176712,257.981506 
	C111.797798,255.337570 112.392189,252.680618 113.025085,249.659821 
	C114.502129,247.675095 115.337585,248.927444 116.158012,249.980515 
	C118.449570,252.921951 119.639313,256.303223 119.981407,260.392365 
	C119.545937,262.449158 118.301338,262.949982 116.425262,263.114594 
z"/>
<path fill="#EBEBEB" opacity="1.000000" stroke="none" 
	d="
M100.007454,317.576538 
	C98.205460,318.743958 100.340157,320.358978 99.325378,321.332520 
	C97.168633,320.743866 97.176697,318.152405 95.124496,317.090332 
	C93.960045,312.407684 95.905464,308.408630 97.575943,304.116608 
	C100.068329,308.117462 98.050476,312.961700 100.007454,317.576538 
z"/>
<path fill="#F8F8F9" opacity="1.000000" stroke="none" 
	d="
M148.725906,254.749390 
	C149.621750,256.403137 150.267578,257.857330 150.957703,259.655151 
	C149.828598,259.808960 148.655197,259.619141 147.258179,259.624634 
	C146.820892,260.093994 146.600449,260.362457 146.188019,260.808777 
	C146.003876,260.993134 145.999969,261.000000 145.996307,261.001038 
	C144.977661,261.713837 143.984024,261.894897 143.015442,260.468384 
	C142.988007,257.696808 142.983521,255.340042 142.973312,252.543488 
	C144.575195,252.262177 145.569366,253.479874 147.042526,254.590942 
	C147.645950,254.591660 148.035782,254.477646 148.725906,254.749390 
z"/>
<path fill="#D2D4D6" opacity="1.000000" stroke="none" 
	d="
M357.356079,240.964783 
	C356.857788,240.837082 356.648438,240.549133 356.208038,240.124237 
	C357.536682,238.141464 359.096375,236.295654 361.581360,233.354828 
	C360.976044,237.354874 358.759460,238.782608 357.356079,240.964783 
z"/>
<path fill="#F1EBED" opacity="1.000000" stroke="none" 
	d="
M167.414917,252.114090 
	C167.740784,250.117859 168.360046,247.941788 168.990540,245.384476 
	C169.282516,244.314102 169.768097,243.873642 170.831635,243.902313 
	C170.572449,246.928070 169.109009,249.417480 167.414917,252.114090 
z"/>
<path fill="#D2D4D6" opacity="1.000000" stroke="none" 
	d="
M147.854767,245.311829 
	C149.558884,246.580368 149.032639,248.503067 148.565384,250.649353 
	C148.137283,249.157242 147.943985,247.395691 147.854767,245.311829 
z"/>
<path fill="#F1EBED" opacity="1.000000" stroke="none" 
	d="
M164.131149,258.709961 
	C163.912430,258.961792 163.452667,258.937988 163.223831,258.963013 
	C163.526260,256.742218 164.188904,254.568100 166.521088,253.060532 
	C166.015671,254.815918 165.182770,256.637024 164.131149,258.709961 
z"/>
<path fill="#FDFDFD" opacity="1.000000" stroke="none" 
	d="
M171.374359,243.865051 
	C170.609528,244.286896 170.073929,244.523422 169.270050,244.881592 
	C168.012527,243.204483 167.908371,241.708206 170.667084,241.041946 
	C171.083878,241.295364 171.243378,241.543045 171.667542,241.850754 
	C171.777908,242.529251 171.690735,243.104492 171.374359,243.865051 
z"/>
<path fill="#B7BCC1" opacity="1.000000" stroke="none" 
	d="
M87.218033,295.541779 
	C86.835251,294.790100 87.035294,294.079285 88.014397,294.037201 
	C89.010574,293.994385 89.065941,294.951599 89.690125,295.758301 
	C90.226524,297.221344 89.315987,298.622070 88.628677,298.513885 
	C87.053894,298.265930 88.723122,296.257416 87.218033,295.541779 
z"/>
<path fill="#EBEBEB" opacity="1.000000" stroke="none" 
	d="
M101.924194,275.049713 
	C100.336121,274.615814 99.591133,273.925598 101.908554,272.984833 
	C102.165237,273.579590 102.118645,274.213165 101.924194,275.049713 
z"/>
<path fill="#D2D4D6" opacity="1.000000" stroke="none" 
	d="
M138.810074,250.330872 
	C138.927109,250.875107 138.792374,251.243607 138.410126,251.784454 
	C137.219406,251.979553 136.252792,251.384430 136.407104,250.668915 
	C136.593750,249.803345 137.758102,250.094376 138.810074,250.330872 
z"/>
<path fill="#B7BCC1" opacity="1.000000" stroke="none" 
	d="
M122.227859,334.919434 
	C122.848099,333.811737 123.742584,334.109100 124.826523,334.789673 
	C124.144325,335.048157 123.282829,335.076965 122.227859,334.919434 
z"/>
<path fill="#D2D4D6" opacity="1.000000" stroke="none" 
	d="
M119.595825,244.775604 
	C118.629303,244.892776 118.206390,244.221909 118.130692,242.977081 
	C118.645973,243.266541 119.108589,243.873978 119.595825,244.775604 
z"/>
<path fill="#D2D4D6" opacity="1.000000" stroke="none" 
	d="
M103.828491,236.571106 
	C103.824554,237.608795 103.278305,237.990982 102.179222,237.337265 
	C102.544746,236.923630 103.052162,236.700760 103.828491,236.571106 
z"/>
<path fill="#D2D4D6" opacity="1.000000" stroke="none" 
	d="
M148.981934,254.679825 
	C148.539902,255.002899 148.103867,255.056885 147.483795,254.989075 
	C147.510849,254.458252 147.721985,254.049225 148.117416,253.345551 
	C148.530457,253.504166 148.759201,253.957458 148.981934,254.679825 
z"/>
<path fill="#D2D4D6" opacity="1.000000" stroke="none" 
	d="
M107.788643,236.144363 
	C107.543716,237.003342 106.983734,237.037689 106.199585,236.483154 
	C106.592354,236.187241 107.115005,236.091599 107.788643,236.144363 
z"/>
<path fill="#F2F2F2" opacity="1.000000" stroke="none" 
	d="
M286.343140,236.045532 
	C286.038940,235.935165 286.018799,235.717361 285.971985,235.172531 
	C286.081665,234.553680 286.218018,234.261841 286.597473,233.905182 
	C287.060455,233.856537 287.280304,233.872711 287.621277,234.196609 
	C287.370636,234.982254 286.998901,235.460159 286.343140,236.045532 
z"/>
<path fill="#D2D4D6" opacity="1.000000" stroke="none" 
	d="
M122.709198,251.767853 
	C122.450104,251.767197 122.237396,251.514801 122.079910,251.006653 
	C122.341949,251.005966 122.548767,251.261032 122.709198,251.767853 
z"/>
<path fill="#F2F2F2" opacity="1.000000" stroke="none" 
	d="
M288.351654,233.425095 
	C288.418762,233.878098 288.269379,234.094498 287.903992,234.388840 
	C287.586761,234.400848 287.431183,234.297363 287.058105,234.017120 
	C287.004852,233.546448 287.169159,233.252563 287.589539,232.901733 
	C287.960205,232.971848 288.074860,233.098923 288.351654,233.425095 
z"/>
<path fill="#141414" opacity="1.000000" stroke="none" 
	d="
M127.311630,279.940979 
	C129.623169,281.520782 131.785675,282.791351 134.283173,284.100586 
	C135.231552,284.304626 135.834473,284.541260 136.733887,284.206909 
	C137.202286,282.186340 137.427597,280.373352 137.824448,278.213776 
	C138.547058,277.550323 139.109894,277.528076 139.727753,278.242706 
	C139.855682,284.190094 143.425674,289.000488 142.658051,294.720764 
	C137.456558,294.232422 134.286957,290.426605 130.240646,288.234039 
	C129.249817,287.697113 128.307892,286.532227 127.111847,287.157104 
	C125.634468,287.928925 126.142822,289.482758 126.320831,290.750427 
	C126.738586,293.725555 128.186478,296.016724 130.924927,297.456055 
	C132.492020,298.279755 134.518219,298.501099 135.163635,300.848022 
	C134.573639,301.450378 134.078110,301.717468 133.343811,302.141418 
	C129.068161,304.540771 125.683487,304.213959 122.552238,300.960449 
	C118.084846,296.318634 116.948380,290.763062 118.601761,284.284088 
	C118.750198,283.683319 118.884300,283.408966 118.893738,283.198608 
	C118.366180,283.624268 117.918938,283.883057 117.152153,284.277283 
	C115.894646,284.730194 114.961014,284.806030 113.803665,284.029602 
	C112.994576,280.929962 114.510674,279.362610 117.218781,278.238831 
	C120.617371,274.715424 122.688103,278.538361 125.521378,279.281860 
	C126.338875,279.282043 126.766808,279.371277 127.311630,279.940979 
z"/>
<path fill="#1A1A1A" opacity="1.000000" stroke="none" 
	d="
M170.213593,279.623596 
	C168.981964,281.448730 167.541229,282.499390 168.746964,285.235931 
	C169.879761,287.806976 169.620895,290.983429 168.419250,293.841309 
	C167.419235,296.219604 166.069916,297.767120 163.145020,296.403381 
	C162.879303,293.519073 164.723328,291.359375 164.302368,288.813110 
	C164.117599,287.695435 164.216568,286.280762 163.048599,285.782532 
	C161.699036,285.206818 161.071274,286.613190 160.321533,287.402954 
	C158.539322,289.280365 157.427658,291.852478 154.397263,292.894592 
	C151.504944,288.057739 154.247589,283.147430 154.638870,278.000916 
	C155.425018,279.740570 155.851486,281.680603 156.337997,283.893860 
	C158.866760,282.781830 160.353333,280.522278 162.197983,278.727264 
	C166.652435,274.392731 166.626205,274.365784 170.213593,279.623596 
z"/>
<path fill="#F0F0F0" opacity="1.000000" stroke="none" 
	d="
M135.300568,301.380768 
	C134.693375,299.308533 133.015091,299.887573 131.878082,299.565491 
	C127.973511,298.459625 125.778755,295.759033 124.793755,292.015717 
	C124.110954,289.420868 123.652336,286.161926 125.754173,284.601257 
	C127.212288,283.518585 129.483231,286.027985 131.253647,287.143738 
	C134.879639,289.428925 138.404068,291.875305 142.171661,294.539551 
	C140.092682,297.075287 137.812317,299.326752 135.300568,301.380768 
z"/>
<path fill="#B7BCC1" opacity="1.000000" stroke="none" 
	d="
M120.320007,282.106171 
	C119.786240,286.126495 118.977219,289.861877 119.954437,293.723206 
	C121.614563,300.282990 125.713226,303.115692 132.744965,302.209808 
	C132.306717,305.560364 129.601257,304.825195 127.418030,304.869812 
	C122.805153,304.964111 118.476639,304.060120 114.957207,300.173370 
	C114.669273,299.206512 116.494545,300.043640 115.598839,298.809204 
	C114.825859,297.743866 115.003029,296.354340 114.250641,294.946716 
	C114.154221,293.092651 114.134033,291.556366 114.117188,289.635742 
	C115.972389,287.862885 115.320679,285.373383 116.750732,283.427185 
	C117.677223,282.694366 118.408859,282.248108 119.462990,281.789703 
	C119.950340,281.804596 120.115196,281.831665 120.320007,282.106171 
z"/>
<path fill="#EBEBEB" opacity="1.000000" stroke="none" 
	d="
M154.323822,293.251068 
	C156.466019,290.060730 158.862305,287.093536 161.227753,284.101959 
	C163.046814,281.801392 164.345734,281.229340 165.203400,284.842072 
	C166.123184,288.716400 166.464371,292.392548 163.395782,295.870300 
	C161.530670,296.175232 159.994705,296.324158 158.191803,296.752502 
	C155.781815,296.805878 155.629028,294.705566 154.323822,293.251068 
z"/>
<path fill="#E02959" opacity="1.000000" stroke="none" 
	d="
M150.652298,304.682922 
	C153.050323,304.882111 155.102432,304.896606 157.591614,304.857300 
	C158.485336,304.585968 158.963959,304.513306 159.704285,304.869629 
	C159.944000,305.153656 160.014099,305.539459 160.026779,305.735107 
	C161.046310,307.339874 159.779129,308.699310 159.888031,310.457336 
	C159.730515,311.056915 159.633606,311.289276 159.323547,311.838013 
	C156.969955,314.158447 154.765976,315.955353 151.263916,314.218262 
	C150.282532,313.338257 149.592819,312.712524 148.641953,311.970642 
	C147.281082,311.564758 146.276077,311.094482 145.338242,309.987915 
	C145.240570,309.665924 145.158783,309.779480 145.225677,309.799988 
	C144.898026,309.776611 144.580246,309.596985 144.201660,309.030029 
	C144.064011,308.778656 144.214035,308.459534 144.224579,308.283508 
	C144.794342,304.440887 147.888840,305.038910 150.652298,304.682922 
z"/>
<path fill="#D2D4D6" opacity="1.000000" stroke="none" 
	d="
M160.237732,310.479309 
	C161.486893,312.741547 160.799667,314.758484 159.672760,316.636017 
	C158.168747,319.141724 157.565979,321.784271 158.018448,325.067078 
	C157.966339,325.726257 157.906830,325.987000 157.494324,326.431030 
	C155.005646,325.820923 150.237961,325.559174 145.571533,326.196686 
	C143.924164,326.421753 142.291428,326.464386 140.284790,326.361938 
	C139.607712,325.737579 139.496735,325.230927 139.830154,324.356995 
	C141.678772,323.719330 143.294067,323.093536 144.886047,323.148071 
	C149.677994,323.312195 151.343262,320.783783 151.303406,316.008179 
	C154.927277,316.219177 156.954666,314.196808 158.854874,311.274658 
	C159.090881,311.021179 159.018707,311.016998 159.033783,311.049866 
	C159.254395,310.733032 159.554962,310.513336 160.237732,310.479309 
z"/>
<path fill="#D2D4D6" opacity="1.000000" stroke="none" 
	d="
M142.654785,260.011078 
	C143.567062,260.892578 144.429321,260.964600 145.661957,260.966431 
	C146.150528,261.586731 144.946259,262.449799 146.795837,262.999817 
	C148.041229,266.709015 148.261658,270.143280 146.150711,273.692657 
	C143.157455,271.906677 140.633102,269.213196 136.380676,269.013092 
	C135.822021,268.834656 135.639938,268.670898 135.720551,268.250366 
	C136.492752,267.766449 137.002274,267.539337 137.766220,267.196655 
	C138.497940,266.632629 138.669037,266.106781 138.207977,265.270660 
	C137.461655,263.395996 138.919800,264.181030 139.759491,263.835388 
	C140.330139,263.651917 140.637299,263.527771 141.032578,263.203522 
	C140.732880,262.237640 140.359955,261.508728 140.137726,260.261353 
	C140.964615,259.818146 141.640839,259.893372 142.654785,260.011078 
z"/>
<path fill="#141414" opacity="1.000000" stroke="none" 
	d="
M139.663330,325.640198 
	C143.728836,325.526215 147.488770,325.183685 151.255646,324.955444 
	C153.772797,324.802887 152.499146,322.685516 153.164902,321.561249 
	C155.299454,322.136993 154.228043,325.136383 156.652756,325.862122 
	C157.352203,326.304260 157.486847,326.726166 157.210785,327.480713 
	C150.640442,327.737579 144.295959,327.725433 137.538269,327.731934 
	C136.719421,327.456085 136.521698,327.064117 136.779709,326.274231 
	C137.168427,325.933533 137.343567,325.877258 137.752014,325.673676 
	C138.437088,325.364960 138.895889,325.349823 139.663330,325.640198 
z"/>
<path fill="#B7BCC1" opacity="1.000000" stroke="none" 
	d="
M119.281586,261.263123 
	C118.870163,256.407898 117.461708,252.348007 113.395462,249.310486 
	C113.134109,248.042847 112.697411,246.691116 113.807091,245.518402 
	C118.304108,248.440704 118.679413,253.808655 121.580139,258.007294 
	C121.635452,258.925262 121.390800,259.640259 121.041191,260.628052 
	C120.600861,261.343140 120.157448,261.532684 119.281586,261.263123 
z"/>
<path fill="#F8F8F9" opacity="1.000000" stroke="none" 
	d="
M117.249924,278.128113 
	C116.396492,279.896454 115.186356,281.591827 113.990768,283.642731 
	C113.606018,284.350647 113.141647,284.498199 112.297287,284.229248 
	C109.727676,281.263397 111.796806,279.049255 113.220589,277.128326 
	C114.524971,275.368439 115.502411,278.243073 117.249924,278.128113 
z"/>
<path fill="#F8F8F8" opacity="1.000000" stroke="none" 
	d="
M111.987000,284.376831 
	C112.431999,284.011383 112.881607,284.005127 113.668259,283.998535 
	C114.888847,284.100525 115.768250,284.190430 116.621216,283.186157 
	C116.916130,285.199585 117.071815,287.282837 116.805725,289.310791 
	C116.534035,291.381470 115.491623,290.470276 114.375885,289.420013 
	C113.494339,287.706909 111.816719,286.658203 111.987000,284.376831 
z"/>
<path fill="#9D263E" opacity="1.000000" stroke="none" 
	d="
M158.745636,311.114288 
	C159.053650,313.581482 157.012512,314.907379 155.617935,316.622498 
	C154.020660,318.586945 152.918716,317.544464 151.673248,315.767548 
	C151.291122,315.227173 151.177002,314.872467 151.017548,314.240906 
	C153.925903,314.332153 156.247650,312.997528 158.745636,311.114288 
z"/>
<path fill="#F8F8F8" opacity="1.000000" stroke="none" 
	d="
M150.932556,304.559265 
	C148.951401,305.868652 146.904587,306.869659 144.546448,307.989075 
	C142.386032,304.955750 143.146408,303.083557 146.925156,303.591797 
	C148.199692,303.763214 149.907730,302.242767 150.932556,304.559265 
z"/>
<path fill="#F8F8F8" opacity="1.000000" stroke="none" 
	d="
M113.954689,330.743042 
	C111.361290,330.274139 108.649414,329.592896 106.718391,325.720551 
	C109.653511,326.794006 111.605850,327.508057 113.810974,328.428040 
	C114.036629,329.197021 114.009491,329.760010 113.954689,330.743042 
z"/>
<path fill="#F8F8F9" opacity="1.000000" stroke="none" 
	d="
M118.693893,261.191223 
	C119.399216,261.041473 119.841232,261.026123 120.609741,260.955811 
	C121.447105,261.986877 122.434929,262.443237 123.401947,263.067810 
	C126.026291,264.762848 123.708855,264.680420 122.256462,264.978241 
	C120.431511,263.356262 118.490387,264.372955 116.399933,264.048645 
	C116.023651,264.014801 116.023384,263.537811 116.017502,263.299500 
	C116.817940,262.482697 117.624260,261.904144 118.693893,261.191223 
z"/>
<path fill="#F8F8F9" opacity="1.000000" stroke="none" 
	d="
M161.821503,328.634552 
	C161.790253,331.684052 159.680313,332.231689 157.331177,332.932983 
	C157.311340,331.616058 157.643860,330.271301 157.985474,328.576599 
	C159.218414,326.791534 160.433060,327.105316 161.821503,328.634552 
z"/>
<path fill="#212121" opacity="1.000000" stroke="none" 
	d="
M162.312317,329.026062 
	C161.167038,327.777618 159.841980,328.262573 158.349884,328.156250 
	C157.822083,328.156036 157.649597,328.085480 157.231018,327.882324 
	C156.990158,327.351105 156.995407,326.952484 157.002487,326.254822 
	C157.173599,325.872070 157.342896,325.788391 157.769012,325.585114 
	C159.540970,325.778412 161.056091,326.091309 162.951630,326.453430 
	C165.063141,326.181671 164.392929,327.417542 164.149292,328.562866 
	C163.454483,328.963287 163.039734,328.996033 162.312317,329.026062 
z"/>
<path fill="#F8F8F8" opacity="1.000000" stroke="none" 
	d="
M114.126129,295.037018 
	C115.077888,295.978882 116.100082,297.266022 116.855972,298.694122 
	C117.892517,300.652496 116.094299,299.712952 115.110466,299.899597 
	C113.574844,298.540802 114.108849,296.948303 114.126129,295.037018 
z"/>
<path fill="#6B6B6B" opacity="1.000000" stroke="none" 
	d="
M136.599426,325.913513 
	C137.023285,326.379425 137.053268,326.768982 137.104156,327.454590 
	C135.256241,328.540802 133.365524,328.270660 131.076263,327.833344 
	C132.652100,326.263275 134.522095,326.267670 136.599426,325.913513 
z"/>
<path fill="#F8F8F8" opacity="1.000000" stroke="none" 
	d="
M139.813599,278.292053 
	C139.401138,278.436523 139.031235,278.187286 138.328674,277.902618 
	C137.812225,276.491150 137.628448,275.115082 137.355682,273.072693 
	C139.511520,274.547638 139.564636,276.284149 139.813599,278.292053 
z"/>
<path fill="#F8F8F9" opacity="1.000000" stroke="none" 
	d="
M127.750496,280.083191 
	C127.011566,280.102722 126.562477,279.955231 125.993668,279.598877 
	C126.127029,278.488861 126.102043,277.142853 127.560837,277.609680 
	C128.729218,277.983582 128.905533,278.930511 127.750496,280.083191 
z"/>
<path fill="#9D263E" opacity="1.000000" stroke="none" 
	d="
M160.586105,310.166718 
	C160.205612,310.681152 159.886261,310.827209 159.307861,311.028015 
	C159.348312,309.615814 159.647781,308.148926 159.993362,306.306396 
	C162.153625,306.919556 160.611847,308.482880 160.586105,310.166718 
z"/>
<path fill="#D2D4D6" opacity="1.000000" stroke="none" 
	d="
M164.214661,328.931396 
	C163.813232,328.299438 163.757233,327.668365 163.516632,326.769958 
	C163.914551,326.374969 164.497070,326.247314 165.529541,326.114441 
	C167.076645,327.839813 167.183319,329.072327 164.214661,328.931396 
z"/>
<path fill="#F8F8F8" opacity="1.000000" stroke="none" 
	d="
M109.010391,320.904510 
	C108.291924,320.682007 107.705170,320.180634 106.961838,319.432800 
	C106.624832,318.605103 106.789375,318.147949 107.700226,317.857758 
	C108.622993,318.113159 109.144348,318.325714 109.832581,318.770203 
	C109.713684,319.543304 109.427895,320.084473 109.010391,320.904510 
z"/>
<path fill="#D2D4D6" opacity="1.000000" stroke="none" 
	d="
M139.935715,260.074249 
	C138.774765,259.833344 137.636108,259.641754 136.859329,258.430817 
	C138.193115,257.759521 139.207809,257.941498 140.156174,259.453857 
	C140.288406,259.742920 140.050156,259.960541 139.935715,260.074249 
z"/>
<path fill="#F8F8F8" opacity="1.000000" stroke="none" 
	d="
M145.231216,310.057434 
	C146.443192,309.734711 147.303299,310.412842 148.225586,311.555511 
	C147.104645,311.887573 145.671249,312.274048 145.231216,310.057434 
z"/>
<path fill="#F8F8F8" opacity="1.000000" stroke="none" 
	d="
M110.282074,272.287201 
	C110.540688,271.042480 111.393639,270.928131 112.672447,271.021484 
	C112.905457,271.921753 112.614029,272.671875 111.310852,272.951050 
	C110.827904,272.849335 110.658615,272.701324 110.282074,272.287201 
z"/>
<path fill="#F8F8F8" opacity="1.000000" stroke="none" 
	d="
M139.979172,325.521973 
	C139.519928,325.796509 139.073914,325.772888 138.306610,325.637817 
	C138.164459,324.703583 138.639603,324.186615 139.785217,324.049011 
	C140.046890,324.430695 140.019653,324.827271 139.979172,325.521973 
z"/>
<path fill="#F8F8F8" opacity="1.000000" stroke="none" 
	d="
M137.994110,265.400299 
	C139.145065,265.404205 140.769943,265.591858 138.317612,267.040710 
	C138.013336,266.632568 138.006027,266.184082 137.994110,265.400299 
z"/>
<path fill="#F8F8F8" opacity="1.000000" stroke="none" 
	d="
M107.166061,279.954681 
	C106.899200,279.541901 106.928459,279.095215 107.039642,278.322327 
	C107.753311,278.124023 108.507072,278.233124 108.436172,279.055237 
	C108.409088,279.369385 107.803917,279.633728 107.166061,279.954681 
z"/>
<path fill="#F8F8F8" opacity="1.000000" stroke="none" 
	d="
M159.943146,304.896454 
	C159.506989,305.128784 159.069962,305.103882 158.330811,304.941223 
	C158.606171,304.045135 159.141098,302.790894 159.943146,304.896454 
z"/>
<path fill="#F8F8F8" opacity="1.000000" stroke="none" 
	d="
M135.748154,268.014221 
	C135.981354,268.161194 135.979462,268.328796 135.990845,268.747375 
	C135.600357,268.837189 135.196594,268.675964 134.792816,268.514709 
	C135.032913,268.354767 135.272995,268.194824 135.748154,268.014221 
z"/>
<path fill="#F8F8F8" opacity="1.000000" stroke="none" 
	d="
M136.582932,284.004639 
	C137.066864,286.102966 135.938110,285.015015 134.863708,284.425873 
	C135.141739,284.096161 135.665314,284.053040 136.582932,284.004639 
z"/>
<path fill="#F8F8F9" opacity="1.000000" stroke="none" 
	d="
M140.892685,263.061920 
	C141.696915,263.827209 141.089706,263.868256 140.252838,263.856079 
	C140.193726,263.537567 140.407623,263.319031 140.892685,263.061920 
z"/>
<path fill="#F8F8F8" opacity="1.000000" stroke="none" 
	d="
M120.035263,328.902527 
	C119.860725,328.958588 119.983543,328.491547 120.033997,328.255676 
	C120.207451,328.208496 120.348244,328.389252 120.438957,328.592346 
	C120.457802,328.634460 120.291023,328.759552 120.035263,328.902527 
z"/>
<path fill="#F8F8F9" opacity="1.000000" stroke="none" 
	d="
M109.989655,272.236694 
	C110.363190,272.145905 110.598969,272.335938 110.889671,272.794312 
	C110.793930,272.986481 110.590652,272.975616 110.082253,272.931427 
	C109.777122,272.898132 109.904503,272.452301 109.989655,272.236694 
z"/>
<path fill="#F8F8F8" opacity="1.000000" stroke="none" 
	d="
M144.179123,309.042480 
	C144.391647,308.955536 144.719269,309.132446 145.169739,309.564911 
	C144.959793,309.649109 144.626999,309.477753 144.179123,309.042480 
z"/>
<path fill="#F8F8F8" opacity="1.000000" stroke="none" 
	d="
M150.521484,290.535156 
	C150.479919,290.557343 150.563065,290.513000 150.521484,290.535156 
z"/>
<path fill="#F8F8F8" opacity="1.000000" stroke="none" 
	d="
M150.520966,293.534180 
	C150.480225,293.555725 150.561722,293.512604 150.520966,293.534180 
z"/>
<path fill="#EBEBEB" opacity="1.000000" stroke="none" 
	d="
M73.520279,301.532532 
	C73.479340,301.554352 73.561226,301.510712 73.520279,301.532532 
z"/>
<path fill="#E62055" opacity="1.000000" stroke="none" 
	d="
M169.559937,227.655304 
	C169.234802,228.793991 169.079926,229.560928 168.780182,230.692932 
	C167.519012,234.831772 166.496719,238.645554 164.388992,242.030609 
	C163.777435,243.012817 163.086227,244.099579 161.762985,244.045135 
	C160.126129,243.977768 159.788223,242.508835 159.262909,241.315948 
	C158.994461,240.706345 159.170731,241.487061 159.127426,240.843475 
	C158.094330,225.490707 151.910278,210.866684 152.801910,194.856644 
	C152.792603,189.671051 155.102951,185.676880 156.761215,180.724625 
	C166.031158,191.922867 162.886520,205.816238 167.562057,218.885544 
	C168.014572,216.058884 168.238586,214.659470 168.516434,212.923813 
	C168.959518,214.281174 169.308945,215.351593 169.818802,216.710220 
	C171.541428,218.600250 171.631454,220.569641 171.307846,223.039307 
	C170.776291,224.748932 169.949036,225.896896 169.559937,227.655304 
z"/>
<path fill="#9D263E" opacity="1.000000" stroke="none" 
	d="
M152.669769,194.835495 
	C153.788467,202.168549 154.631561,209.884171 156.824142,217.381042 
	C159.283936,225.791595 159.947708,234.530319 161.104965,243.756424 
	C165.441498,240.294998 165.566589,235.188568 168.392914,231.284698 
	C168.565887,231.916641 168.496490,232.775238 168.523468,233.945450 
	C168.818726,234.686874 168.792969,235.096222 168.290817,235.736130 
	C167.691055,237.009079 167.308594,238.027802 166.898376,239.374237 
	C166.446106,240.633133 166.587494,241.789139 165.533386,242.786636 
	C164.916779,243.796158 164.505341,244.570786 164.041138,245.670593 
	C163.881393,247.985245 162.676361,249.332230 160.993683,250.723328 
	C159.628143,251.895905 158.573868,252.927002 157.271271,254.158844 
	C156.831619,254.378265 156.640305,254.396942 156.274231,254.186249 
	C156.158798,253.285873 156.218094,252.614853 156.206573,251.613983 
	C156.222504,251.099030 156.309250,250.913940 156.374939,250.422974 
	C156.449753,249.656693 156.545654,249.196304 156.564545,248.387482 
	C155.778290,246.314499 156.041107,244.510300 156.088196,242.344376 
	C155.965775,239.508667 155.807510,237.055283 155.475250,234.244339 
	C154.199387,226.147949 152.931198,218.427902 152.054489,210.663651 
	C151.475662,205.537445 151.494049,200.348648 152.669769,194.835495 
z"/>
<path fill="#FDFDFD" opacity="1.000000" stroke="none" 
	d="
M169.932373,224.275055 
	C169.856979,221.934525 169.829422,219.895554 169.890564,217.427505 
	C171.837555,217.173050 172.674911,215.241318 174.893387,214.721100 
	C174.968155,218.389938 175.361603,221.877151 174.289719,225.706329 
	C173.267441,226.013458 172.507935,226.008926 171.369049,226.005859 
	C170.402817,225.707092 170.094009,225.210663 169.932373,224.275055 
z"/>
<path fill="#1A1A1A" opacity="1.000000" stroke="none" 
	d="
M262.823547,293.125122 
	C266.853485,297.605042 267.138000,302.399078 264.870087,307.255127 
	C262.382660,312.581116 255.119446,313.531799 251.031570,309.311584 
	C247.750519,305.924286 247.515549,298.502533 250.562683,294.501160 
	C253.348358,290.843140 257.191040,290.319855 262.823547,293.125122 
z"/>
<path fill="#212121" opacity="1.000000" stroke="none" 
	d="
M235.324188,242.600510 
	C233.732178,242.795731 232.539948,243.122253 231.423813,242.951508 
	C229.843994,242.709808 227.225922,244.546875 226.882675,241.892471 
	C226.606400,239.755936 227.580399,237.022232 230.127869,236.240372 
	C233.787659,235.117142 237.614273,234.781693 241.468689,235.265320 
	C243.292816,235.494202 243.979919,236.773224 244.270264,238.306107 
	C244.673798,240.436508 243.010880,240.672501 241.547760,241.039932 
	C239.616562,241.524902 237.687759,242.019409 235.324188,242.600510 
z"/>
<path fill="#212121" opacity="1.000000" stroke="none" 
	d="
M242.110443,220.733566 
	C244.422668,220.974625 247.328384,219.661850 247.920456,221.825516 
	C248.655579,224.511826 245.370773,224.830322 243.628799,225.606873 
	C240.015671,227.217590 236.196930,228.367142 232.430344,229.717880 
	C231.877548,223.697693 234.384735,221.315308 242.110443,220.733566 
z"/>
<path fill="#212121" opacity="1.000000" stroke="none" 
	d="
M336.685608,257.529602 
	C334.812958,260.054474 333.051270,262.416168 329.645844,261.410431 
	C328.873718,261.182404 328.013733,260.920776 327.904327,259.901123 
	C327.782562,258.765991 328.719391,258.429840 329.462372,258.382660 
	C331.927032,258.226135 334.139801,256.651184 336.685608,257.529602 
z"/>
<path fill="#141414" opacity="1.000000" stroke="none" 
	d="
M341.864838,243.813126 
	C342.260132,242.885162 342.788055,242.740921 342.853271,244.207291 
	C342.555725,244.330597 342.351013,244.192383 341.864838,243.813126 
z"/>
<path fill="#EBEBEB" opacity="1.000000" stroke="none" 
	d="
M107.922157,317.625854 
	C107.784409,318.157135 107.467178,318.413696 106.977608,318.928284 
	C105.427513,317.881012 103.510101,316.966156 103.401901,314.348389 
	C105.600441,314.505554 106.483719,316.221954 107.922157,317.625854 
z"/>
<path fill="#F8F8F9" opacity="1.000000" stroke="none" 
	d="
M115.990097,263.985840 
	C115.980751,263.974121 115.788788,264.423340 115.788788,264.423340 
	C115.788788,264.423340 115.793793,264.127045 115.908722,264.070923 
	C116.023651,264.014801 115.999443,263.997559 115.990097,263.985840 
z"/>
<path fill="#EBEBEB" opacity="1.000000" stroke="none" 
	d="
M101.055138,319.107574 
	C100.984955,319.023132 101.379051,319.214752 101.379051,319.214752 
	C101.379051,319.214752 101.125320,319.192017 101.055138,319.107574 
z"/>
<path fill="#EBEBEB" opacity="1.000000" stroke="none" 
	d="
M101.011948,318.993286 
	C100.710701,318.865021 100.451996,318.672394 100.131149,318.192383 
	C100.015282,317.977173 99.998497,318.000336 99.986885,318.009094 
	C100.316643,318.095001 100.583092,318.280029 100.879791,318.798035 
	C100.984955,319.023132 101.000771,319.001007 101.011948,318.993286 
z"/>
<path fill="#141414" opacity="1.000000" stroke="none" 
	d="
M282.598816,236.028564 
	C283.608978,235.613251 284.310059,235.685059 283.749329,236.601013 
	C283.248688,237.418854 282.688812,236.909363 282.598816,236.028564 
z"/>
<path fill="#141414" opacity="1.000000" stroke="none" 
	d="
M261.611786,239.406769 
	C261.586182,239.663422 261.393188,239.709183 261.200165,239.754944 
	C261.281586,239.568588 261.362976,239.382233 261.611786,239.406769 
z"/>
<path fill="#141414" opacity="1.000000" stroke="none" 
	d="
M271.746643,243.578522 
	C272.390503,242.621246 272.941620,242.630035 272.668701,244.207153 
	C272.336639,244.273514 272.163239,244.079025 271.746643,243.578522 
z"/>
<path fill="#B7BCC1" opacity="1.000000" stroke="none" 
	d="
M153.992371,264.986328 
	C153.984222,264.974854 153.805252,265.370850 153.805252,265.370850 
	C153.805252,265.370850 153.827072,265.128265 153.925537,265.070496 
	C154.024002,265.012695 154.000534,264.997772 153.992371,264.986328 
z"/>
<path fill="#D2D4D6" opacity="1.000000" stroke="none" 
	d="
M146.911713,262.898743 
	C146.971313,262.512207 147.177582,262.268494 147.809616,262.114807 
	C148.070312,262.475281 147.878967,262.729736 147.428619,263.077606 
	C147.235947,263.220917 147.018295,263.007629 146.911713,262.898743 
z"/>
<path fill="#D2D4D6" opacity="1.000000" stroke="none" 
	d="
M147.927094,261.908630 
	C148.081909,261.679413 148.429092,261.044037 148.321640,262.059387 
	C148.195297,262.170929 148.013565,261.999023 147.927094,261.908630 
z"/>
<path fill="#D2D4D6" opacity="1.000000" stroke="none" 
	d="
M146.250977,260.877167 
	C146.196930,260.701752 146.389984,260.410370 146.808807,259.969482 
	C146.855728,260.133728 146.676895,260.447449 146.250977,260.877167 
z"/>
<path fill="#F1EBED" opacity="1.000000" stroke="none" 
	d="
M155.851074,242.201660 
	C157.080353,243.650192 156.679245,245.488495 156.599854,247.658936 
	C154.050720,246.519775 154.980667,244.453522 155.851074,242.201660 
z"/>
<path fill="#F1EBED" opacity="1.000000" stroke="none" 
	d="
M155.875824,254.101654 
	C156.262131,254.004013 156.424744,254.051163 156.805145,254.228943 
	C156.828140,254.809921 156.633362,255.260284 156.224121,255.842896 
	C155.341019,255.512543 155.069794,254.967758 155.875824,254.101654 
z"/>
<path fill="#F1EBED" opacity="1.000000" stroke="none" 
	d="
M156.242249,250.291779 
	C156.613312,250.370117 156.655167,250.655167 156.307587,251.128159 
	C156.031754,251.012192 156.030045,250.739655 156.242249,250.291779 
z"/>
<path fill="#F1EBED" opacity="1.000000" stroke="none" 
	d="
M161.040253,250.868896 
	C161.605331,249.367432 162.528244,247.870056 163.719757,246.184235 
	C165.172852,248.709152 163.766220,250.046402 161.040253,250.868896 
z"/>
<path fill="#F1EBED" opacity="1.000000" stroke="none" 
	d="
M169.694260,224.265076 
	C170.230499,224.447876 170.576462,224.922256 170.956055,225.701996 
	C170.923721,226.790161 170.734604,227.503922 169.664978,227.952637 
	C169.427765,226.870270 169.465881,225.713470 169.694260,224.265076 
z"/>
<path fill="#F1EBED" opacity="1.000000" stroke="none" 
	d="
M165.653763,242.915894 
	C165.680862,242.049408 166.033493,241.077286 166.628387,239.903534 
	C166.956879,240.847961 167.209351,242.041656 165.653763,242.915894 
z"/>
<path fill="#F1EBED" opacity="1.000000" stroke="none" 
	d="
M168.290588,235.752899 
	C168.109680,235.570465 168.145844,235.150574 168.400940,234.493866 
	C168.582443,234.676514 168.545044,235.095993 168.290588,235.752899 
z"/>
<path fill="#B7BCC1" opacity="1.000000" stroke="none" 
	d="
M119.928482,281.922180 
	C120.318993,281.083679 120.599968,281.171570 120.492905,282.201294 
	C120.359947,282.353577 120.071495,282.066772 119.928482,281.922180 
z"/>
<path fill="#F8F8F8" opacity="1.000000" stroke="none" 
	d="
M141.437622,267.441711 
	C141.501358,267.403168 141.373886,267.480255 141.437622,267.441711 
z"/>
</svg>